<svg xmlns="http://www.w3.org/2000/svg" fill="none" viewBox="0 0 20 43" height="43" width="20">
<path fill="white" d="M19.0559 16.7808C16.8357 6.98241 11.5888 3.76066 11.0238 2.52976C10.4059 1.66133 9.77985 0.116705 9.77985 0.116705C9.76955 0.090618 9.75307 0.0446226 9.73385 0C9.67001 0.868425 9.63706 1.20344 8.816 2.07941C7.5446 3.07347 1.02146 8.54695 0.49079 19.6793C-0.00417772 30.0619 7.99082 36.2487 9.07206 37.0375L9.19495 37.1246V37.1171C9.20181 37.1693 9.5382 39.5885 9.77435 42.1519H10.6215C10.8203 40.3399 11.1182 38.5402 11.514 36.7608L11.5826 36.7162C12.0663 36.3694 12.5274 35.9922 12.9632 35.5869L13.0126 35.5423C15.311 33.4189 19.443 28.5077 19.4025 20.6774C19.394 19.3713 19.278 18.068 19.0559 16.7808ZM9.68442 31.1754C9.68442 31.1754 9.68442 16.6133 10.165 16.6161C10.5398 16.6161 11.0252 35.3995 11.0252 35.3995C10.3579 35.3191 9.68442 32.3081 9.68442 31.1754Z"></path>
</svg>
